<svg viewBox="0 0 110 110" width="110" height="110" xmlns="http://www.w3.org/2000/svg">
  <rect width="110" height="110" rx="15" fill="#0F172A" stroke="#38BDF8" stroke-width="2"/>
  <!-- Layers lines -->
  <line x1="25" y1="35" x2="55" y2="25" stroke="#0EA5E9" stroke-width="1.5"/>
  <line x1="25" y1="35" x2="55" y2="50" stroke="#0EA5E9" stroke-width="1.5"/>
  <line x1="25" y1="35" x2="55" y2="75" stroke="#0EA5E9" stroke-width="1.5"/>
  <line x1="25" y1="65" x2="55" y2="25" stroke="#0EA5E9" stroke-width="1.5"/>
  <line x1="25" y1="65" x2="55" y2="50" stroke="#0EA5E9" stroke-width="1.5"/>
  <line x1="25" y1="65" x2="55" y2="75" stroke="#0EA5E9" stroke-width="1.5"/>
  <line x1="55" y1="25" x2="85" y2="50" stroke="#0EA5E9" stroke-width="1.5"/>
  <line x1="55" y1="50" x2="85" y2="50" stroke="#0EA5E9" stroke-width="1.5"/>
  <line x1="55" y1="75" x2="85" y2="50" stroke="#0EA5E9" stroke-width="1.5"/>
  <!-- Layer 1 Nodes -->
  <circle cx="25" cy="35" r="7" fill="#0284C7"/>
  <circle cx="25" cy="65" r="7" fill="#0284C7"/>
  <!-- Layer 2 Nodes -->
  <circle cx="55" cy="25" r="7" fill="#0EA5E9"/>
  <circle cx="55" cy="50" r="7" fill="#0EA5E9"/>
  <circle cx="55" cy="75" r="7" fill="#0EA5E9"/>
  <!-- Layer 3 Nodes -->
  <circle cx="85" cy="50" r="7" fill="#38BDF8"/>
  <text x="55" y="96" font-family="sans-serif" font-weight="bold" font-size="16" fill="#E0F2FE" text-anchor="middle">D L</text>
</svg>
