<svg viewBox="0 0 110 110" width="110" height="110" xmlns="http://www.w3.org/2000/svg">
  <rect width="110" height="110" rx="15" fill="#1E1B4B" stroke="#6366F1" stroke-width="2"/>
  <!-- Brain/Node diagram -->
  <path d="M55 25c-15 0-25 10-25 25s10 25 25 25 25-10 25-25-10-25-25-25z" fill="none" stroke="#818CF8" stroke-dasharray="3 3" stroke-width="2"/>
  <!-- Connecting lines -->
  <line x1="35" y1="50" x2="55" y2="35" stroke="#818CF8" stroke-width="2"/>
  <line x1="35" y1="50" x2="55" y2="65" stroke="#818CF8" stroke-width="2"/>
  <line x1="55" y1="35" x2="75" y2="50" stroke="#818CF8" stroke-width="2"/>
  <line x1="55" y1="65" x2="75" y2="50" stroke="#818CF8" stroke-width="2"/>
  <line x1="55" y1="35" x2="55" y2="65" stroke="#818CF8" stroke-width="2"/>
  <line x1="35" y1="50" x2="75" y2="50" stroke="#818CF8" stroke-width="2"/>
  <!-- Nodes -->
  <circle cx="35" cy="50" r="8" fill="#4F46E5"/>
  <circle cx="55" cy="35" r="8" fill="#6366F1"/>
  <circle cx="55" cy="65" r="8" fill="#818CF8"/>
  <circle cx="75" cy="50" r="8" fill="#A5B4FC"/>
  <text x="55" y="93" font-family="sans-serif" font-weight="bold" font-size="16" fill="#E0E7FF" text-anchor="middle">M L</text>
</svg>
