<svg viewBox="0 0 110 110" width="110" height="110" xmlns="http://www.w3.org/2000/svg">
  <path d="M55 2C30.2 2 30.6 12.7 30.6 12.7l.1 10.4h24.7v3.5H21.2S2 25.1 2 49.8s18.2 24.3 18.2 24.3l10.8-.1v-15.3c0-8.6 7-15.5 15.5-15.5h24.7c8.6 0 15.5-7 15.5-15.5V18S86 2 55 2zm-12.7 8a4.7 4.7 0 1 1 0 9.4 4.7 4.7 0 0 1 0-9.4z" fill="#3776AB"/>
  <path d="M55 108c24.8 0 24.4-10.7 24.4-10.7l-.1-10.4H54.6v-3.5h34.2s19.2 1.5 19.2-23.2S89.8 35.9 89.8 35.9l-10.8.1v15.3c0 8.6-7 15.5-15.5 15.5H38.8c-8.6 0-15.5 7-15.5 15.5V92s.8 16 31.7 16zm12.7-8a4.7 4.7 0 1 1 0-9.4 4.7 4.7 0 0 1 0 9.4z" fill="#FFE873"/>
</svg>
