<svg viewBox="0 0 110 110" width="110" height="110" xmlns="http://www.w3.org/2000/svg">
  <rect width="110" height="110" rx="15" fill="#0F172A" stroke="#38BDF8" stroke-width="2"/>
  <!-- Database Cylinders -->
  <path d="M35 30 C35 23 75 23 75 30 L75 48 C75 55 35 55 35 48 Z" fill="#0284C7" stroke="#38BDF8" stroke-width="2"/>
  <path d="M35 48 C35 41 75 41 75 48 L75 66 C75 73 35 73 35 66 Z" fill="#0369A1" stroke="#38BDF8" stroke-width="2"/>
  <path d="M35 66 C35 59 75 59 75 66 L75 84 C75 91 35 91 35 84 Z" fill="#075985" stroke="#38BDF8" stroke-width="2"/>
  <!-- Cylinder Ellipses (Tops) -->
  <ellipse cx="55" cy="30" rx="20" ry="5" fill="#38BDF8"/>
  <ellipse cx="55" cy="48" rx="20" ry="5" fill="#0EA5E9" stroke="#38BDF8" stroke-width="1"/>
  <ellipse cx="55" cy="66" rx="20" ry="5" fill="#0284C7" stroke="#38BDF8" stroke-width="1"/>
  <text x="55" y="100" font-family="sans-serif" font-weight="bold" font-size="14" fill="#E0F2FE" text-anchor="middle">SQL</text>
</svg>
